<?xml version="1.0" standalone="no"?>
<!DOCTYPE svg PUBLIC "-//W3C//DTD SVG 20010904//EN"
 "http://www.w3.org/TR/2001/REC-SVG-20010904/DTD/svg10.dtd">
<svg version="1.0" xmlns="http://www.w3.org/2000/svg"
 width="80.000000pt" height="80.000000pt" viewBox="0 0 80.000000 80.000000"
 preserveAspectRatio="xMidYMid meet">
<metadata>
Created by potrace 1.15, written by Peter Selinger 2001-2017
</metadata>
<g transform="translate(0.000000,80.000000) scale(0.100000,-0.100000)"
fill="#FFFFFF" stroke="none">
<path d="M219 681 c-24 -15 -55 -40 -68 -55 l-25 -26 22 -20 c19 -18 22 -32
22 -91 0 -53 4 -71 15 -75 8 -4 15 -14 15 -24 0 -9 11 -34 25 -54 14 -20 25
-40 25 -44 0 -5 -22 -16 -50 -26 -27 -10 -68 -31 -90 -47 -37 -27 -40 -32 -40
-79 l0 -50 201 0 c131 0 198 3 194 10 -4 6 -78 10 -191 10 -181 0 -184 0 -184
21 0 12 16 36 35 54 39 38 125 72 125 51 0 -44 110 -65 143 -28 10 10 17 24
17 31 0 9 6 11 18 6 27 -11 45 -11 49 2 2 6 -12 17 -32 24 -38 14 -46 47 -10
41 94 -17 147 5 173 69 8 21 19 39 24 39 11 0 10 177 -2 199 -5 10 -34 31 -64
46 -47 24 -63 27 -108 22 -37 -3 -59 -1 -73 9 -34 25 -115 18 -166 -15z m151
-16 c6 -8 22 -17 33 -21 33 -10 57 -34 57 -57 0 -18 -2 -19 -12 -6 -30 35 -45
41 -70 26 -13 -8 -47 -18 -77 -22 -35 -5 -62 -15 -76 -29 l-21 -22 -12 36
c-12 40 -2 58 53 91 36 23 108 25 125 4z m49 -99 c6 -8 14 -37 18 -65 3 -28
10 -48 14 -45 15 9 10 -13 -6 -26 -8 -7 -15 -21 -15 -31 0 -10 -13 -33 -29
-51 -24 -27 -36 -33 -71 -33 -35 0 -47 6 -71 33 -16 18 -29 41 -29 51 0 10 -7
24 -15 31 -16 13 -21 35 -6 26 5 -3 12 10 15 29 8 43 37 63 105 74 28 4 54 11
58 15 10 10 19 7 32 -8z m161 -15 c5 -11 10 -35 10 -55 0 -19 6 -37 13 -39 9
-4 9 -8 0 -14 -6 -4 -15 -21 -18 -36 -7 -28 -57 -77 -78 -77 -7 0 -22 3 -35 6
-20 6 -22 11 -16 38 3 17 13 35 20 39 10 5 14 28 14 71 0 62 0 63 33 74 45 14
45 14 57 -7z"/>
<path d="M552 300 c-48 -30 -72 -75 -72 -140 0 -100 60 -160 160 -160 100 0
160 60 160 160 0 65 -24 110 -72 140 -45 27 -131 27 -176 0z m179 -49 c35 -35
39 -44 39 -91 0 -47 -4 -56 -39 -91 -35 -35 -44 -39 -91 -39 -47 0 -56 4 -91
39 -35 35 -39 44 -39 91 0 47 4 56 39 91 35 35 44 39 91 39 47 0 56 -4 91 -39z"/>
</g>
</svg>
